PathFileType	4	(X/Y/Z)	C:\Users\WrightLab\Desktop\Jo\P5V129.trc
DataRate	CameraRate	NumFrames	NumMarkers	Units	OrigDataRate	OrigDataStartFrame	OrigNumFrames
100.00	100.00	       13	19	mm	100.00	336	       671
Frame#	Time	Headset_Front			Headset_Back			Headset_Left			Headset_Right			Left_Shoulder			Right_Shoulder			Sternum			C7			Left Elbow			Right Elbow			Left Wrist			Right Wrist			Left ASIS			Right ASIS			S2			Left Knee			Right Knee			Left Ankle			Right Ankle			
		X1	Y1	Z1	X2	Y2	Z2	X3	Y3	Z3	X4	Y4	Z4	X5	Y5	Z5	X6	Y6	Z6	X7	Y7	Z7	X8	Y8	Z8	X9	Y9	Z9	X10	Y10	Z10	X11	Y11	Z11	X12	Y12	Z12	X13	Y13	Z13	X14	Y14	Z14	X15	Y15	Z15	X16	Y16	Z16	X17	Y17	Z17	X18	Y18	Z18	X19	Y19	Z19	

336	3.350										-149.74968	1517.61145	422.52789	-408.14255	1508.04504	479.22186	-140.86192	1481.70044	784.59021	-200.78235	1334.88977	585.31384	-367.37527	1536.67969	714.90558	-452.85062	1293.82813	310.30673	-160.85445	1213.90527	924.16815	-331.14975	1232.64783	109.61089	-34.07219	1048.26196	803.52667	-247.93193	940.79303	478.77100	-112.23785	969.00555	725.85950	-447.32745	982.81769	719.50940	-290.36667	493.89520	464.34009	-134.30301	528.05627	714.28937	-627.63721	275.83374	692.66626	-191.33664	110.05147	676.95404	
337	3.360										-143.58162	1518.00208	417.75385	-401.37064	1509.59692	474.90265	-133.60176	1482.87219	778.45239	-193.73495	1336.38586	581.04865	-360.15588	1538.04822	710.83795	-448.00555	1297.03638	305.48215	-152.06715	1215.80774	919.61749	-327.25455	1236.59497	104.28754	-24.61695	1050.05042	798.67731	-240.11099	942.77161	471.65768	-104.88155	970.93427	722.00708	-438.06628	984.41992	715.27777	-275.08276	496.66339	453.01794	-131.19522	527.48230	716.72388	-612.44165	281.72012	681.14441	-191.15630	110.34474	676.75098	
338	3.370										-137.56792	1518.18213	412.75665	-395.16144	1510.95117	470.71066	-126.42117	1483.97205	773.53406	-188.02310	1337.38757	575.55829	-352.71210	1539.53784	706.32971	-443.71613	1299.87061	301.72784	-142.64212	1217.20398	914.11041	-323.49332	1240.39514	99.03809	-15.42572	1051.81323	793.19330	-232.43842	944.52039	465.94656	-99.91636	970.69281	720.39728	-429.04349	985.64301	710.51263	-258.92148	501.07208	442.49936	-127.83643	526.85089	719.47485	-595.97681	286.32803	668.89417	-191.75290	111.19807	676.27277	
339	3.380										-131.52229	1518.73572	407.41199	-388.96722	1512.24780	466.50189	-118.73219	1484.79639	767.46228	-181.53575	1338.19678	570.81702	-345.81668	1540.95325	701.91162	-438.65503	1302.13220	296.65253	-132.39407	1218.53650	908.83112	-319.19254	1243.72083	93.81351	-6.57265	1053.66382	786.87476	-225.35570	945.95203	459.86035	-93.50539	972.60333	716.70978	-419.57205	987.38794	705.82813	-244.25375	506.27490	430.76334	-124.93546	525.54736	721.32306	-579.41064	288.88324	655.66974	-191.66600	111.26270	675.93481	
340	3.390										-125.61587	1518.49243	402.84573	-382.60370	1513.34375	462.16278	-111.70252	1486.27051	763.42358	-175.81184	1339.02051	566.44983	-338.79163	1541.95337	697.63477	-433.44574	1303.61438	291.62119	-122.36085	1219.98401	903.77075	-315.50610	1247.00525	88.44838	2.46657	1054.93152	781.03564	-218.24602	947.24915	453.68463	-86.27194	974.03632	712.19989	-411.16293	988.22198	701.88391	-230.82771	510.99658	420.99619	-121.92392	524.85950	723.54785	-561.96399	290.44940	642.39624	-191.64253	111.19629	675.37213	
341	3.400										-119.65327	1518.92969	398.10736	-376.38373	1514.32971	458.09283	-103.82019	1487.42981	758.43744	-169.44737	1339.94214	561.62079	-331.44861	1542.73962	693.22797	-428.35458	1305.56714	286.86963	-112.98088	1221.15796	899.33521	-311.29477	1250.10669	83.18782	11.24552	1055.98523	774.94464	-211.49213	948.10016	447.42661	-79.60322	975.30402	707.63306	-402.49393	989.62653	697.30377	-218.04478	515.86316	411.29755	-118.15648	524.27313	725.32220	-544.95258	291.80832	629.13983	-191.61862	111.30238	675.21289	
342	3.410										-113.93757	1518.82422	392.95108	-369.60602	1514.37683	454.08868	-96.43291	1488.63635	754.16211	-162.52275	1339.99500	557.44696	-324.15427	1543.70569	689.08478	-423.41541	1307.35999	282.02475	-103.50206	1222.45032	893.56659	-307.12317	1253.24744	78.42055	20.04748	1057.34131	769.53284	-205.47398	948.72662	441.02921	-73.74969	975.54535	702.79333	-393.72549	990.18512	693.43774	-205.67953	520.80878	402.57724	-114.21748	523.82446	726.74628	-527.10809	291.37143	615.43439	-191.55762	111.35489	675.17224	
343	3.420										-108.25812	1518.97546	388.10294	-364.19919	1515.44495	450.26334	-89.33591	1489.03308	746.56866	-156.03606	1341.33801	552.17975	-317.92810	1544.71033	685.40143	-418.20148	1309.30762	277.43942	-93.80376	1223.58826	888.44763	-303.41492	1255.39514	73.77102	28.62545	1058.08276	762.81757	-199.54475	949.57117	434.92001	-68.07082	976.11975	697.97650	-384.44504	990.28827	689.20392	-192.62717	525.13251	394.46564	-110.31088	524.11823	728.04144	-509.11508	289.76703	602.54340	-191.46657	111.42715	675.15582	
344	3.430										-102.60709	1519.05688	383.25726	-357.72647	1515.76575	446.06174	-82.31385	1489.45679	740.91071	-149.18323	1341.66113	548.32800	-310.69534	1545.33997	680.95337	-413.07883	1310.86670	272.71301	-84.61305	1223.81824	882.62646	-299.31302	1257.79199	68.97137	37.08418	1059.40247	756.19000	-193.85844	949.43951	429.42380	-63.62695	976.18567	693.82019	-376.49005	990.42175	685.41986	-179.62109	529.73383	387.86707	-106.08707	524.60065	728.32843	-491.00452	288.18051	588.77032	-191.37839	111.50562	675.12164	
345	3.440										-97.13631	1518.76880	377.85101	-351.70187	1516.34143	442.58878	-75.35270	1490.84436	737.36621	-142.91705	1341.37878	544.45691	-303.90195	1545.51953	676.73700	-408.40631	1312.56726	268.82660	-75.09492	1225.10645	877.83160	-295.39236	1259.68689	63.75241	45.85266	1059.97363	750.35089	-187.90579	949.93353	423.07379	-59.07728	975.90125	689.60681	-368.68597	991.16663	681.21686	-166.66432	533.50702	381.65359	-101.99413	525.48499	728.24243	-472.77866	285.48535	575.58801	-191.32849	111.54859	675.08685	
346	3.450										-91.46212	1518.49536	374.06836	-345.55679	1516.66394	439.00616	-67.83131	1491.73560	733.89569	-135.69760	1342.45740	540.21094	-296.99713	1546.16150	672.71735	-403.42236	1314.36658	264.27716	-65.53504	1226.47827	872.82996	-291.17880	1261.36743	58.79023	54.35354	1060.99268	744.51141	-181.74509	950.27972	417.85995	-55.15790	976.29755	684.84381	-361.35480	991.51617	677.55322	-153.91206	537.41205	375.73636	-97.20848	526.47833	727.30469	-454.76895	281.81049	562.67920	-191.25952	111.62080	675.00934	
347	3.460										-86.20175	1518.54688	368.01535	-339.20459	1516.61292	434.97000	-60.55657	1492.32324	729.53894	-129.47685	1342.23816	536.52032	-290.08072	1546.59460	668.55011	-398.52722	1315.41614	260.69165	-56.41446	1226.34302	867.93097	-287.14642	1262.32495	54.27184	62.67883	1061.92761	737.79858	-175.19360	950.45319	413.02112	-50.18952	975.95715	680.50122	-353.86761	992.00110	673.35876	-141.48656	541.16272	369.95654	-92.07062	526.96802	726.72650	-435.36716	277.25037	550.03552	-191.20183	111.69431	674.87244	
348	3.470										-80.86406	1518.20874	363.31274	-333.04846	1516.97449	431.37427	-53.74233	1493.06995	722.63977	-122.50980	1342.79443	531.86493	-283.16092	1546.29663	664.74957	-392.83087	1315.70715	256.75055	-47.67767	1227.34473	862.49066	-283.56567	1263.67590	50.28887	70.85641	1062.82275	731.90186	-168.53073	951.01013	408.28589	-45.94221	976.77533	675.94275	-347.25726	992.56354	669.80957	-129.91295	543.94025	364.72833	-88.33802	527.83362	725.29126	-416.68393	272.31927	537.24524	-191.30899	111.66177	674.21149	
